<?xml version="1.0" encoding="UTF-8" standalone="no"?>
<!-- Created with Inkscape (http://www.inkscape.org/) -->

<svg
   width="470mm"
   height="340mm"
   viewBox="0 0 470 340"
   version="1.1"
   id="svg1"
   inkscape:version="1.4 (86a8ad7, 2024-10-11)"
   sodipodi:docname="front_box.svg"
   xmlns:inkscape="http://www.inkscape.org/namespaces/inkscape"
   xmlns:sodipodi="http://sodipodi.sourceforge.net/DTD/sodipodi-0.dtd"
   xmlns="http://www.w3.org/2000/svg"
   xmlns:svg="http://www.w3.org/2000/svg">
  <sodipodi:namedview
     id="namedview1"
     pagecolor="#ffffff"
     bordercolor="#000000"
     borderopacity="0.25"
     inkscape:showpageshadow="2"
     inkscape:pageopacity="0.0"
     inkscape:pagecheckerboard="0"
     inkscape:deskcolor="#d1d1d1"
     inkscape:document-units="mm"
     inkscape:zoom="0.35355339"
     inkscape:cx="472.34733"
     inkscape:cy="673.16566"
     inkscape:window-width="1440"
     inkscape:window-height="830"
     inkscape:window-x="-6"
     inkscape:window-y="-6"
     inkscape:window-maximized="1"
     inkscape:current-layer="layer1"
     showguides="false" />
  <defs
     id="defs1" />
  <g
     inkscape:label="Layer 1"
     inkscape:groupmode="layer"
     id="layer1">
    <g
       id="g19"
       inkscape:label="2"
       transform="translate(125.84647,10.528662)">
      <path
         id="rect7-7-5"
         style="fill:#ffffff;fill-opacity:0;stroke:#ff0000;stroke-width:0.4;stroke-dasharray:none;stroke-opacity:1"
         d="M 0.32866211,5.6254964 H -1.6231567 V 1.2975952 H -8.5782878 V -0.64647217 H -16.575216 V 1.2975952 h -7.997444 v -1.94406737 h -7.997445 V 1.2975952 h -7.996928 v -1.94406737 h -7.997445 V 1.2975952 h -7.997444 V -0.64647217 H -64.55885 V 1.2975952 h -7.997445 v -1.94406737 h -7.997444 V 1.2975952 h -7.996928 v -1.94406737 h -7.997445 V 1.2975952 h -7.997448 v -1.94406737 h -7.99692 V 1.2975952 h -7.99745 v -1.94406737 h -7.99744 V 1.2975952 h -7.99693 v -1.94406737 h -7.99745 V 1.2975952 h -7.99744 v -1.94406737 h -7.99745 V 1.2975952 h -7.99692 v -1.94406737 h -7.99745 V 1.2975952 h -7.99744 v -1.94406737 h -7.99693 V 1.2975952 h -8.64754 -1.95181 V 5.249292 h 1.95181 v 3.9522135 h -1.95181 v 3.9522135 h 1.95181 v 3.951697 h -1.95181 v 3.952213 h 1.95181 v 3.952214 h -1.95181 v 3.951697 h 1.95181 v 3.952213 h -1.95181 v 3.952214 h 1.95181 v 3.951697 h -1.95181 v 3.952213 h 1.95181 v 3.952214 h -1.95181 v 3.951696 h 1.95181 v 3.952214 h -1.95181 v 3.952214 h 1.95181 v 3.951696 h -1.95181 v 3.952214 h 1.95181 v 3.952213 h -1.95181 v 3.951697 h 1.95181 v 3.952214 h -1.95181 v 3.951696 h 1.95181 v 3.952214 h -1.95181 v 3.952214 h 1.95181 v 3.951696 h -1.95181 v 3.952211 h 1.95181 v 0.73898 h -0.39222 v 1.94406 h 7.99745 v -1.94406 h 7.99744 v 1.94406 h 7.99693 v -1.94406 h 7.99744 v 1.94406 h 7.99745 v -1.94406 h 7.99693 v 1.94406 h 7.99744 v -1.94406 h 7.99744 v 1.94406 h 7.99693 v -1.94406 h 7.99745 v 1.94406 h 7.99744 v -1.94406 h 7.99693 v 1.94406 h 7.997444 v -1.94406 h 7.997445 v 1.94406 h 7.996928 v -1.94406 h 7.997445 v 1.94406 h 7.997444 v -1.94406 h 7.996928 v 1.94406 h 7.997445 v -1.94406 h 7.997444 v 1.94406 h 7.996928 v -1.94406 h 7.997445 v 1.94406 h 7.997445 v -1.94406 h 7.9969276 v 1.94406 h 7.9974447 v -1.94406 -4.314986 H 0.32866211 V 92.57006 H -1.6231567 V 88.617847 H 0.32866211 V 84.66615 H -1.6231567 V 80.713936 H 0.32866211 V 76.76224 H -1.6231567 V 72.810026 H 0.32866211 V 68.857812 H -1.6231567 V 64.906116 H 0.32866211 V 60.953902 H -1.6231567 V 57.001689 H 0.32866211 V 53.049992 H -1.6231567 V 49.097778 H 0.32866211 V 45.145565 H -1.6231567 V 41.193868 H 0.32866211 V 37.241654 H -1.6231567 V 33.289441 H 0.32866211 V 29.337744 H -1.6231567 V 25.385531 H 0.32866211 V 21.433317 H -1.6231567 V 17.48162 H 0.32866211 V 13.529407 H -1.6231567 V 9.5771932 h 1.95181881 z"
         transform="rotate(-90)" />
      <rect
         style="fill:#ffffff;fill-opacity:0;stroke:#ff0000;stroke-width:0.276705"
         id="rect1-8-5-7-2"
         width="84.723297"
         height="84.723297"
         x="10.138352"
         y="10.138352" />
      <rect
         style="fill:#ffffff;fill-opacity:0;stroke:#000000;stroke-width:0.22553;stroke-opacity:1"
         id="rect1-8-5-7-2-1"
         width="59.774471"
         height="79.774467"
         x="117.11276"
         y="-90.88723"
         transform="rotate(90)" />
      <text
         xml:space="preserve"
         style="font-style:normal;font-variant:normal;font-weight:normal;font-stretch:normal;font-size:1.76389px;font-family:sans-serif;-inkscape-font-specification:'sans-serif, Normal';font-variant-ligatures:normal;font-variant-caps:normal;font-variant-numeric:normal;font-variant-east-asian:normal;text-align:start;writing-mode:lr-tb;direction:ltr;text-anchor:start;fill:#ffffff;fill-opacity:0;stroke:#000000;stroke-width:0.4;stroke-dasharray:none;stroke-opacity:1"
         x="48.643898"
         y="6.5138273"
         id="text20-7"><tspan
           sodipodi:role="line"
           id="tspan20-6"
           style="font-style:normal;font-variant:normal;font-weight:normal;font-stretch:normal;font-size:1.76389px;font-family:sans-serif;-inkscape-font-specification:'sans-serif, Normal';font-variant-ligatures:normal;font-variant-caps:normal;font-variant-numeric:normal;font-variant-east-asian:normal;stroke-width:0.4"
           x="48.643898"
           y="6.5138273">2</tspan></text>
      <text
         xml:space="preserve"
         style="font-style:normal;font-variant:normal;font-weight:normal;font-stretch:normal;font-size:1.76389px;font-family:sans-serif;-inkscape-font-specification:'sans-serif, Normal';font-variant-ligatures:normal;font-variant-caps:normal;font-variant-numeric:normal;font-variant-east-asian:normal;text-align:start;writing-mode:lr-tb;direction:ltr;text-anchor:start;fill:#ffffff;fill-opacity:0;stroke:#000000;stroke-width:0.4;stroke-dasharray:none;stroke-opacity:1"
         x="2.9493585"
         y="108.63868"
         id="text20-7-9-9-1-6"><tspan
           sodipodi:role="line"
           id="tspan20-6-6-4-4-8"
           style="font-style:normal;font-variant:normal;font-weight:normal;font-stretch:normal;font-size:1.76389px;font-family:sans-serif;-inkscape-font-specification:'sans-serif, Normal';font-variant-ligatures:normal;font-variant-caps:normal;font-variant-numeric:normal;font-variant-east-asian:normal;stroke-width:0.4"
           x="2.9493585"
           y="108.63868">5</tspan></text>
      <text
         xml:space="preserve"
         style="font-style:normal;font-variant:normal;font-weight:normal;font-stretch:normal;font-size:1.76389px;font-family:sans-serif;-inkscape-font-specification:'sans-serif, Normal';font-variant-ligatures:normal;font-variant-caps:normal;font-variant-numeric:normal;font-variant-east-asian:normal;text-align:start;writing-mode:lr-tb;direction:ltr;text-anchor:start;fill:#ffffff;fill-opacity:0;stroke:#000000;stroke-width:0.4;stroke-dasharray:none;stroke-opacity:1"
         x="97.141029"
         y="110.75535"
         id="text20-7-9-9-1-1"><tspan
           sodipodi:role="line"
           id="tspan20-6-6-4-4-0"
           style="font-style:normal;font-variant:normal;font-weight:normal;font-stretch:normal;font-size:1.76389px;font-family:sans-serif;-inkscape-font-specification:'sans-serif, Normal';font-variant-ligatures:normal;font-variant-caps:normal;font-variant-numeric:normal;font-variant-east-asian:normal;stroke-width:0.4"
           x="97.141029"
           y="110.75535">6</tspan></text>
      <text
         xml:space="preserve"
         style="font-style:normal;font-variant:normal;font-weight:normal;font-stretch:normal;font-size:1.76389px;font-family:sans-serif;-inkscape-font-specification:'sans-serif, Normal';font-variant-ligatures:normal;font-variant-caps:normal;font-variant-numeric:normal;font-variant-east-asian:normal;text-align:start;writing-mode:lr-tb;direction:ltr;text-anchor:start;fill:#ffffff;fill-opacity:0;stroke:#000000;stroke-width:0.4;stroke-dasharray:none;stroke-opacity:1"
         x="59.890759"
         y="198.09714"
         id="text20-7-9-9-1-1-4-4-0"><tspan
           sodipodi:role="line"
           id="tspan20-6-6-4-4-0-3-3-8"
           style="font-style:normal;font-variant:normal;font-weight:normal;font-stretch:normal;font-size:1.76389px;font-family:sans-serif;-inkscape-font-specification:'sans-serif, Normal';font-variant-ligatures:normal;font-variant-caps:normal;font-variant-numeric:normal;font-variant-east-asian:normal;stroke-width:0.4"
           x="59.890759"
           y="198.09714">9</tspan></text>
    </g>
    <g
       id="g18"
       inkscape:label="5"
       transform="translate(356.17944,-292.55913)">
      <path
         id="rect1-9"
         style="fill:#ffffff;fill-opacity:0;stroke:#ff0000;stroke-width:0.460283"
         d="m 4.8131429,302.78927 v 1.95182 H 0.99477132 v 7.95042 h -1.94406738 v 7.99744 h 1.94406738 v 7.99745 h -1.94406738 v 7.99693 h 1.94406738 v 7.99744 h -1.94406738 v 7.99744 h 1.94406738 v 7.99693 h -1.94406738 v 7.99745 h 1.94406738 v 7.99744 h -1.94406738 v 7.99693 h 1.94406738 v 7.99744 h -1.94406738 v 7.99745 h 1.94406738 v 7.99693 h -1.94406738 v 7.99744 h 1.94406738 v 7.99745 h -1.94406738 v 7.99692 h 1.94406738 v 7.99745 h -1.94406738 v 7.99744 h 1.94406738 v 7.99693 h -1.94406738 v 7.99745 h 1.94406738 v 7.99744 h -1.94406738 v 7.99693 h 1.94406738 v 7.99744 h -1.94406738 v 7.99745 h 1.94406738 v 7.65173 1.95182 H 4.9469849 v -1.95182 h 3.9516967 v 1.95182 h 3.9522134 v -1.95182 h 3.952214 v 1.95182 h 3.951697 v -1.95182 h 3.952213 v 1.95182 h 3.952214 v -1.95182 h 3.951696 v 1.95182 h 3.952214 v -1.95182 h 3.951697 v 1.95182 h 3.952213 v -1.95182 h 3.952214 v 1.95182 h 3.951697 v -1.95182 h 3.952213 v 1.95182 h 3.952214 v -1.95182 h 3.951696 v 1.95182 h 3.952214 v -1.95182 h 3.952213 v 1.95182 h 3.951697 v -1.95182 h 3.952214 v 1.95182 h 3.952213 v -1.95182 h 3.951697 v 1.95182 h 3.952214 v -1.95182 h 3.952213 v 1.95182 h 3.951697 v -1.95182 h 0.738971 v 0.0331 h 1.94407 v -7.99744 h -1.94407 v -7.99693 h 1.94407 v -7.99745 h -1.94407 v -7.99744 h 1.94407 v -7.99693 h -1.94407 v -7.99744 h 1.94407 v -7.99745 h -1.94407 v -7.99693 h 1.94407 v -7.99744 h -1.94407 v -7.99745 h 1.94407 v -7.99692 h -1.94407 v -7.99745 h 1.94407 v -7.99744 h -1.94407 v -7.99693 h 1.94407 v -7.99745 h -1.94407 v -7.99744 h 1.94407 v -7.99693 h -1.94407 v -7.99744 h 1.94407 v -7.99745 h -1.94407 v -7.99693 h 1.94407 v -7.99744 h -1.94407 v -7.99745 h 1.94407 v -7.99692 h -1.94407 v -7.99745 h 1.94407 v -7.99744 h -1.94407 v 0.35915 h -4.82451 v -1.95182 h -3.951697 v 1.95182 H 87.80601 v -1.95182 h -3.952214 v 1.95182 H 79.9021 v -1.95182 h -3.952214 v 1.95182 h -3.952213 v -1.95182 h -3.951697 v 1.95182 h -3.952214 v -1.95182 h -3.952213 v 1.95182 h -3.951697 v -1.95182 h -3.952214 v 1.95182 h -3.952213 v -1.95182 h -3.951697 v 1.95182 h -3.952214 v -1.95182 h -3.951696 v 1.95182 h -3.952214 v -1.95182 h -3.952213 v 1.95182 H 24.573694 V 302.7893 H 20.62148 v 1.95182 H 16.669267 V 302.7893 H 12.71757 v 1.95182 H 8.7653564 v -1.95182 z" />
      <circle
         style="fill:#ffffff;fill-opacity:0;stroke:#ff0000;stroke-width:0.19802;stroke-opacity:1"
         id="path1"
         cx="19.801407"
         cy="323.94638"
         r="9.9009905" />
      <circle
         style="fill:#ffffff;fill-opacity:0;stroke:#ff0000;stroke-width:0.19802;stroke-opacity:1"
         id="path1-7"
         cx="79.801414"
         cy="323.94638"
         r="9.9009905" />
      <circle
         style="fill:#ffffff;fill-opacity:0;stroke:#ff0000;stroke-width:0.19802;stroke-opacity:1"
         id="path1-79"
         cx="50.801407"
         cy="388.94638"
         r="9.9009905" />
      <circle
         style="fill:#ffffff;fill-opacity:0;stroke:#ff0000;stroke-width:0.19802;stroke-opacity:1"
         id="path1-8"
         cx="19.801407"
         cy="483.94638"
         r="9.9009905" />
      <circle
         style="fill:#ffffff;fill-opacity:0;stroke:#ff0000;stroke-width:0.19802;stroke-opacity:1"
         id="path1-2"
         cx="79.801414"
         cy="483.94638"
         r="9.9009905" />
      <text
         xml:space="preserve"
         style="font-style:normal;font-variant:normal;font-weight:normal;font-stretch:normal;font-size:1.76389px;font-family:sans-serif;-inkscape-font-specification:'sans-serif, Normal';font-variant-ligatures:normal;font-variant-caps:normal;font-variant-numeric:normal;font-variant-east-asian:normal;text-align:start;writing-mode:lr-tb;direction:ltr;text-anchor:start;fill:#ffffff;fill-opacity:0;stroke:#000000;stroke-width:0.4;stroke-dasharray:none;stroke-opacity:1"
         x="0.92743784"
         y="398.09286"
         id="text20-7-9-9-5"><tspan
           sodipodi:role="line"
           id="tspan20-6-6-4-3"
           style="font-style:normal;font-variant:normal;font-weight:normal;font-stretch:normal;font-size:1.76389px;font-family:sans-serif;-inkscape-font-specification:'sans-serif, Normal';font-variant-ligatures:normal;font-variant-caps:normal;font-variant-numeric:normal;font-variant-east-asian:normal;stroke-width:0.4"
           x="0.92743784"
           y="398.09286">4</tspan></text>
      <text
         xml:space="preserve"
         style="font-style:normal;font-variant:normal;font-weight:normal;font-stretch:normal;font-size:1.76389px;font-family:sans-serif;-inkscape-font-specification:'sans-serif, Normal';font-variant-ligatures:normal;font-variant-caps:normal;font-variant-numeric:normal;font-variant-east-asian:normal;text-align:start;writing-mode:lr-tb;direction:ltr;text-anchor:start;fill:#ffffff;fill-opacity:0;stroke:#000000;stroke-width:0.4;stroke-dasharray:none;stroke-opacity:1"
         x="94.45163"
         y="396.08578"
         id="text20-7-9-9-1-1-4-8"><tspan
           sodipodi:role="line"
           id="tspan20-6-6-4-4-0-3-2"
           style="font-style:normal;font-variant:normal;font-weight:normal;font-stretch:normal;font-size:1.76389px;font-family:sans-serif;-inkscape-font-specification:'sans-serif, Normal';font-variant-ligatures:normal;font-variant-caps:normal;font-variant-numeric:normal;font-variant-east-asian:normal;stroke-width:0.4"
           x="94.45163"
           y="396.08578">7</tspan></text>
      <text
         xml:space="preserve"
         style="font-style:normal;font-variant:normal;font-weight:normal;font-stretch:normal;font-size:1.76389px;font-family:sans-serif;-inkscape-font-specification:'sans-serif, Normal';font-variant-ligatures:normal;font-variant-caps:normal;font-variant-numeric:normal;font-variant-east-asian:normal;text-align:start;writing-mode:lr-tb;direction:ltr;text-anchor:start;fill:#ffffff;fill-opacity:0;stroke:#000000;stroke-width:0.4;stroke-dasharray:none;stroke-opacity:1"
         x="50.621624"
         y="308.44858"
         id="text20-7-9-9-1-1-4-4-0-9-3-8"><tspan
           sodipodi:role="line"
           id="tspan20-6-6-4-4-0-3-3-8-2-1-9"
           style="font-style:normal;font-variant:normal;font-weight:normal;font-stretch:normal;font-size:1.76389px;font-family:sans-serif;-inkscape-font-specification:'sans-serif, Normal';font-variant-ligatures:normal;font-variant-caps:normal;font-variant-numeric:normal;font-variant-east-asian:normal;stroke-width:0.4"
           x="50.621624"
           y="308.44858">11</tspan></text>
      <text
         xml:space="preserve"
         style="font-style:normal;font-variant:normal;font-weight:normal;font-stretch:normal;font-size:1.76389px;font-family:sans-serif;-inkscape-font-specification:'sans-serif, Normal';font-variant-ligatures:normal;font-variant-caps:normal;font-variant-numeric:normal;font-variant-east-asian:normal;text-align:start;writing-mode:lr-tb;direction:ltr;text-anchor:start;fill:#ffffff;fill-opacity:0;stroke:#000000;stroke-width:0.4;stroke-dasharray:none;stroke-opacity:1"
         x="48.908482"
         y="501.02005"
         id="text20-7-9-9-1-1-4-4-0-9-3-1"><tspan
           sodipodi:role="line"
           id="tspan20-6-6-4-4-0-3-3-8-2-1-4"
           style="font-style:normal;font-variant:normal;font-weight:normal;font-stretch:normal;font-size:1.76389px;font-family:sans-serif;-inkscape-font-specification:'sans-serif, Normal';font-variant-ligatures:normal;font-variant-caps:normal;font-variant-numeric:normal;font-variant-east-asian:normal;stroke-width:0.4"
           x="48.908482"
           y="501.02005">12</tspan></text>
    </g>
    <g
       id="g20"
       inkscape:label="4"
       transform="translate(11.253658,23.999848)">
      <path
         id="rect1-8-5-7"
         style="fill:#ffffff;fill-opacity:0;stroke:#ff0000;stroke-width:0.325536"
         d="m 5.249292,201.16292 v 1.95181 H 0.86092936 v 4.82555 H -1.0908895 v 3.95221 h 1.95181886 v 3.9517 H -1.0908895 v 3.95221 h 1.95181886 v 3.95222 H -1.0908895 v 3.95169 h 1.95181886 v 3.95222 H -1.0908895 v 3.95221 h 1.95181886 v 3.9517 H -1.0908895 v 3.95221 h 1.95181886 v 3.95221 H -1.0908895 v 3.9517 h 1.95181886 v 3.95221 H -1.0908895 v 3.95222 h 1.95181886 v 3.95169 H -1.0908895 v 3.95222 h 1.95181886 v 3.95221 H -1.0908895 v 3.9517 h 1.95181886 v 3.95221 H -1.0908895 v 3.9517 h 1.95181886 v 3.95221 H -1.0908895 v 3.95222 h 1.95181886 v 3.95169 H -1.0908895 v 3.95222 h 1.95181886 v 3.95221 1.95182 H 4.8131429 v -1.95182 h 3.9516968 v 1.95182 h 3.9522133 v -1.95182 h 3.952214 v 1.95182 h 3.951697 v -1.95182 h 3.952213 v 1.95182 h 3.952214 v -1.95182 h 3.951696 v 1.95182 h 3.952214 v -1.95182 h 3.951697 v 1.95182 h 3.952213 v -1.95182 h 3.952214 v 1.95182 h 3.951697 v -1.95182 h 3.952213 v 1.95182 h 3.952214 v -1.95182 h 3.951696 v 1.95182 h 3.952214 v -1.95182 h 3.952214 v 1.95182 h 3.951696 v -1.95182 h 3.952214 v 1.95182 h 3.952213 v -1.95182 h 3.951697 v 1.95182 h 3.952214 v -1.95182 h 3.952213 v 1.95182 h 3.951697 v -1.95182 h 0.873333 1.95182 v -3.95221 h -1.95182 v -3.9517 h 1.95182 v -3.95221 h -1.95182 v -3.95222 h 1.95182 v -3.95169 h -1.95182 v -3.95222 h 1.95182 v -3.95221 h -1.95182 v -3.9517 h 1.95182 v -3.95221 h -1.95182 v -3.9517 h 1.95182 v -3.95221 h -1.95182 v -3.95222 h 1.95182 v -3.95169 h -1.95182 v -3.95222 h 1.95182 v -3.95221 h -1.95182 v -3.9517 h 1.95182 v -3.95221 h -1.95182 v -3.95221 h 1.95182 v -3.9517 h -1.95182 v -3.95221 h 1.95182 v -3.95222 h -1.95182 v -3.95169 h 1.95182 v -3.95222 h -1.95182 v -3.95221 h 1.95182 v -3.9517 h -1.95182 v -0.87385 h -4.388881 v -1.95181 h -3.951696 v 1.95181 h -3.952214 v -1.95181 h -3.952214 v 1.95181 h -3.951696 v -1.95181 h -3.952214 v 1.95181 h -3.952213 v -1.95181 h -3.951697 v 1.95181 h -3.952214 v -1.95181 h -3.951696 v 1.95181 h -3.952214 v -1.95181 h -3.952214 v 1.95181 h -3.951696 v -1.95181 h -3.952214 v 1.95181 h -3.952213 v -1.95181 h -3.951697 v 1.95181 h -3.952214 v -1.95181 H 28.96154 v 1.95181 h -3.951697 v -1.95181 h -3.952214 v 1.95181 h -3.952213 v -1.95181 h -3.951697 v 1.95181 H 9.2015055 v -1.95181 z" />
      <ellipse
         style="fill:#ffffff;fill-opacity:0;stroke:#000000;stroke-width:0.0990097;stroke-opacity:1"
         id="path1-29"
         cx="14.697947"
         cy="216.95197"
         rx="4.9504948"
         ry="4.9504952" />
      <ellipse
         style="fill:#ffffff;fill-opacity:0;stroke:#000000;stroke-width:0.0990097;stroke-opacity:1"
         id="path1-7-1"
         cx="84.697952"
         cy="216.95197"
         rx="4.9504948"
         ry="4.9504952" />
      <ellipse
         style="fill:#ffffff;fill-opacity:0;stroke:#000000;stroke-width:0.0990097;stroke-opacity:1"
         id="path1-79-3"
         cx="50.697948"
         cy="252.95195"
         rx="4.9504948"
         ry="4.9504952" />
      <ellipse
         style="fill:#ffffff;fill-opacity:0;stroke:#000000;stroke-width:0.0990097;stroke-opacity:1"
         id="path1-8-5"
         cx="14.697948"
         cy="286.95197"
         rx="4.9504948"
         ry="4.9504952" />
      <ellipse
         style="fill:#ffffff;fill-opacity:0;stroke:#000000;stroke-width:0.0990097;stroke-opacity:1"
         id="path1-2-9"
         cx="84.697952"
         cy="286.95197"
         rx="4.9504948"
         ry="4.9504952" />
      <text
         xml:space="preserve"
         style="font-style:normal;font-variant:normal;font-weight:normal;font-stretch:normal;font-size:1.76389px;font-family:sans-serif;-inkscape-font-specification:'sans-serif, Normal';font-variant-ligatures:normal;font-variant-caps:normal;font-variant-numeric:normal;font-variant-east-asian:normal;text-align:start;writing-mode:lr-tb;direction:ltr;text-anchor:start;fill:#ffffff;fill-opacity:0;stroke:#000000;stroke-width:0.4;stroke-dasharray:none;stroke-opacity:1"
         x="2.7407582"
         y="250.48463"
         id="text20-7-9-9-1-1-4-4-7"><tspan
           sodipodi:role="line"
           id="tspan20-6-6-4-4-0-3-3-3"
           style="font-style:normal;font-variant:normal;font-weight:normal;font-stretch:normal;font-size:1.76389px;font-family:sans-serif;-inkscape-font-specification:'sans-serif, Normal';font-variant-ligatures:normal;font-variant-caps:normal;font-variant-numeric:normal;font-variant-east-asian:normal;stroke-width:0.4"
           x="2.7407582"
           y="250.48463">8</tspan></text>
      <text
         xml:space="preserve"
         style="font-style:normal;font-variant:normal;font-weight:normal;font-stretch:normal;font-size:1.76389px;font-family:sans-serif;-inkscape-font-specification:'sans-serif, Normal';font-variant-ligatures:normal;font-variant-caps:normal;font-variant-numeric:normal;font-variant-east-asian:normal;text-align:start;writing-mode:lr-tb;direction:ltr;text-anchor:start;fill:#ffffff;fill-opacity:0;stroke:#000000;stroke-width:0.4;stroke-dasharray:none;stroke-opacity:1"
         x="50.373508"
         y="206.56036"
         id="text20-7-9-9-1-1-4-4-0-1"><tspan
           sodipodi:role="line"
           id="tspan20-6-6-4-4-0-3-3-8-4"
           style="font-style:normal;font-variant:normal;font-weight:normal;font-stretch:normal;font-size:1.76389px;font-family:sans-serif;-inkscape-font-specification:'sans-serif, Normal';font-variant-ligatures:normal;font-variant-caps:normal;font-variant-numeric:normal;font-variant-east-asian:normal;stroke-width:0.4"
           x="50.373508"
           y="206.56036">9</tspan></text>
      <text
         xml:space="preserve"
         style="font-style:normal;font-variant:normal;font-weight:normal;font-stretch:normal;font-size:1.76389px;font-family:sans-serif;-inkscape-font-specification:'sans-serif, Normal';font-variant-ligatures:normal;font-variant-caps:normal;font-variant-numeric:normal;font-variant-east-asian:normal;text-align:start;writing-mode:lr-tb;direction:ltr;text-anchor:start;fill:#ffffff;fill-opacity:0;stroke:#000000;stroke-width:0.4;stroke-dasharray:none;stroke-opacity:1"
         x="95.210571"
         y="248.89369"
         id="text20-7-9-9-1-1-4-4-0-9-2"><tspan
           sodipodi:role="line"
           id="tspan20-6-6-4-4-0-3-3-8-2-3"
           style="font-style:normal;font-variant:normal;font-weight:normal;font-stretch:normal;font-size:1.76389px;font-family:sans-serif;-inkscape-font-specification:'sans-serif, Normal';font-variant-ligatures:normal;font-variant-caps:normal;font-variant-numeric:normal;font-variant-east-asian:normal;stroke-width:0.4"
           x="95.210571"
           y="248.89369">10</tspan></text>
      <text
         xml:space="preserve"
         style="font-style:normal;font-variant:normal;font-weight:normal;font-stretch:normal;font-size:1.76389px;font-family:sans-serif;-inkscape-font-specification:'sans-serif, Normal';font-variant-ligatures:normal;font-variant-caps:normal;font-variant-numeric:normal;font-variant-east-asian:normal;text-align:start;writing-mode:lr-tb;direction:ltr;text-anchor:start;fill:#ffffff;fill-opacity:0;stroke:#000000;stroke-width:0.4;stroke-dasharray:none;stroke-opacity:1"
         x="51.675854"
         y="299.79587"
         id="text20-7-9-9-1-1-4-4-0-9-3"><tspan
           sodipodi:role="line"
           id="tspan20-6-6-4-4-0-3-3-8-2-1"
           style="font-style:normal;font-variant:normal;font-weight:normal;font-stretch:normal;font-size:1.76389px;font-family:sans-serif;-inkscape-font-specification:'sans-serif, Normal';font-variant-ligatures:normal;font-variant-caps:normal;font-variant-numeric:normal;font-variant-east-asian:normal;stroke-width:0.4"
           x="51.675854"
           y="299.79587">11</tspan></text>
    </g>
    <g
       id="g16"
       inkscape:label="6"
       transform="translate(23.67167,-299.28643)">
      <path
         id="rect7-0-2"
         style="fill:#ffffff;fill-opacity:0;stroke:#ff0000;stroke-width:0.4;stroke-dasharray:none;stroke-opacity:1"
         d="m 107.45562,524.48643 v 1.95233 h -3.97547 v 4.69067 h -1.95182 v 3.95222 h 1.95182 v 3.95221 h -1.95182 v 3.9517 h 1.95182 v 3.95221 h -1.95182 v 3.95221 h 1.95182 v 3.9517 h -1.95182 v 3.95221 h 1.95182 v 3.95222 h -1.95182 v 3.95169 h 1.95182 v 3.95222 h -1.95182 v 3.95221 h 1.95182 v 3.9517 h -1.95182 v 3.95221 h 1.95182 v 3.9517 h -1.95182 v 3.95221 h 1.95182 v 3.95222 h -1.95182 v 3.95169 h 1.95182 v 3.95222 h -1.95182 v 3.95221 h 1.95182 v 3.9517 h -1.95182 v 3.95221 h 1.95182 v 3.95221 h -1.95182 v 3.9517 h 1.95182 v 4.08657 5.2e-4 1.95182 h 3.9517 v -1.95182 h 3.95221 v 1.95182 h 3.95221 v -1.95182 h 3.9517 v 1.95182 h 3.95221 v -1.95182 h 3.95222 v 1.95182 h 3.95118 v -1.95182 h 3.95273 v 1.95182 h 3.95221 v -1.95182 h 3.9517 v 1.95182 h 3.95221 v -1.95182 h 3.95221 v 1.95182 h 3.9517 v -1.95182 h 3.95221 v 1.95182 h 3.95118 v -1.95182 h 3.95273 v 1.95182 h 3.95222 v -1.95182 h 3.95169 v 1.95182 h 3.95222 v -1.95182 h 3.9517 v 1.95182 h 3.95221 v -1.95182 h 3.95221 v 1.95182 h 3.95222 v -1.95182 h 3.95169 v 1.95182 h 3.95222 v -1.95182 h 0.87384 1.95182 v -3.95221 h -1.95182 v -3.9517 h 1.95182 v -3.95221 h -1.95182 v -3.95222 h 1.95182 v -3.9517 h -1.95182 v -3.95221 h 1.95182 v -3.9517 h -1.95182 v -3.95221 h 1.95182 v -3.95221 h -1.95182 v -3.95222 h 1.95182 v -3.95169 h -1.95182 v -3.95222 h 1.95182 v -3.95169 h -1.95182 v -3.95222 h 1.95182 v -3.95221 h -1.95182 v -3.9517 h 1.95182 v -3.95221 h -1.95182 v -3.95221 h 1.95182 v -3.9517 h -1.95182 v -3.95221 h 1.95182 v -3.95222 h -1.95182 v -3.95169 h 1.95182 v -3.95222 h -1.95182 v -3.95221 h 1.95182 v -3.9517 h -1.95182 v -0.87385 h -4.80229 v -1.95233 h -3.95221 v 1.95233 h -3.9517 v -1.95233 h -3.95221 v 1.95233 h -3.95221 v -1.95233 h -3.9517 v 1.95233 h -3.95273 v -1.95233 h -3.9517 v 1.95233 h -3.95169 v -1.95233 h -3.95222 v 1.95233 h -3.95221 v -1.95233 h -3.9517 v 1.95233 h -3.95221 v -1.95233 h -3.95222 v 1.95233 h -3.95221 v -1.95233 h -3.9517 v 1.95233 h -3.95221 v -1.95233 h -3.9517 v 1.95233 h -3.95221 v -1.95233 h -3.95221 v 1.95233 h -3.9517 v -1.95233 h -3.95221 v 1.95233 h -3.9517 v -1.95233 z" />
      <rect
         style="fill:#ffffff;fill-opacity:0;stroke:#000000;stroke-width:0.239203;stroke-opacity:1"
         id="rect1-8-5-7-2-1-5"
         width="59.760799"
         height="89.760796"
         x="546.3952"
         y="-198.23399"
         transform="rotate(90)" />
      <text
         xml:space="preserve"
         style="font-style:normal;font-variant:normal;font-weight:normal;font-stretch:normal;font-size:1.76389px;font-family:sans-serif;-inkscape-font-specification:'sans-serif, Normal';font-variant-ligatures:normal;font-variant-caps:normal;font-variant-numeric:normal;font-variant-east-asian:normal;text-align:start;writing-mode:lr-tb;direction:ltr;text-anchor:start;fill:#ffffff;fill-opacity:0;stroke:#000000;stroke-width:0.4;stroke-dasharray:none;stroke-opacity:1"
         x="104.41364"
         y="580.65088"
         id="text20-9"><tspan
           sodipodi:role="line"
           id="tspan20-4"
           style="font-style:normal;font-variant:normal;font-weight:normal;font-stretch:normal;font-size:1.76389px;font-family:sans-serif;-inkscape-font-specification:'sans-serif, Normal';font-variant-ligatures:normal;font-variant-caps:normal;font-variant-numeric:normal;font-variant-east-asian:normal;stroke-width:0.4"
           x="104.41364"
           y="580.65088">1</tspan></text>
      <text
         xml:space="preserve"
         style="font-style:normal;font-variant:normal;font-weight:normal;font-stretch:normal;font-size:1.76389px;font-family:sans-serif;-inkscape-font-specification:'sans-serif, Normal';font-variant-ligatures:normal;font-variant-caps:normal;font-variant-numeric:normal;font-variant-east-asian:normal;text-align:start;writing-mode:lr-tb;direction:ltr;text-anchor:start;fill:#ffffff;fill-opacity:0;stroke:#000000;stroke-width:0.4;stroke-dasharray:none;stroke-opacity:1"
         x="147.28455"
         y="622.58344"
         id="text20-7-6"><tspan
           sodipodi:role="line"
           id="tspan20-6-1"
           style="font-style:normal;font-variant:normal;font-weight:normal;font-stretch:normal;font-size:1.76389px;font-family:sans-serif;-inkscape-font-specification:'sans-serif, Normal';font-variant-ligatures:normal;font-variant-caps:normal;font-variant-numeric:normal;font-variant-east-asian:normal;stroke-width:0.4"
           x="147.28455"
           y="622.58344">2</tspan></text>
      <text
         xml:space="preserve"
         style="font-style:normal;font-variant:normal;font-weight:normal;font-stretch:normal;font-size:1.76389px;font-family:sans-serif;-inkscape-font-specification:'sans-serif, Normal';font-variant-ligatures:normal;font-variant-caps:normal;font-variant-numeric:normal;font-variant-east-asian:normal;text-align:start;writing-mode:lr-tb;direction:ltr;text-anchor:start;fill:#ffffff;fill-opacity:0;stroke:#000000;stroke-width:0.4;stroke-dasharray:none;stroke-opacity:1"
         x="199.4023"
         y="576.81055"
         id="text20-7-9-2"><tspan
           sodipodi:role="line"
           id="tspan20-6-6-5"
           style="font-style:normal;font-variant:normal;font-weight:normal;font-stretch:normal;font-size:1.76389px;font-family:sans-serif;-inkscape-font-specification:'sans-serif, Normal';font-variant-ligatures:normal;font-variant-caps:normal;font-variant-numeric:normal;font-variant-east-asian:normal;stroke-width:0.4"
           x="199.4023"
           y="576.81055">3</tspan></text>
      <text
         xml:space="preserve"
         style="font-style:normal;font-variant:normal;font-weight:normal;font-stretch:normal;font-size:1.76389px;font-family:sans-serif;-inkscape-font-specification:'sans-serif, Normal';font-variant-ligatures:normal;font-variant-caps:normal;font-variant-numeric:normal;font-variant-east-asian:normal;text-align:start;writing-mode:lr-tb;direction:ltr;text-anchor:start;fill:#ffffff;fill-opacity:0;stroke:#000000;stroke-width:0.4;stroke-dasharray:none;stroke-opacity:1"
         x="148.77129"
         y="528.92096"
         id="text20-7-9-9-1-1-4-4-0-9-3-1-8"><tspan
           sodipodi:role="line"
           id="tspan20-6-6-4-4-0-3-3-8-2-1-4-9"
           style="font-style:normal;font-variant:normal;font-weight:normal;font-stretch:normal;font-size:1.76389px;font-family:sans-serif;-inkscape-font-specification:'sans-serif, Normal';font-variant-ligatures:normal;font-variant-caps:normal;font-variant-numeric:normal;font-variant-east-asian:normal;stroke-width:0.4"
           x="148.77129"
           y="528.92096">12</tspan></text>
    </g>
    <g
       id="g21"
       inkscape:label="1"
       transform="translate(112.50863,10.528662)">
      <path
         id="rect1-1"
         style="fill:#ffffff;fill-opacity:0;stroke:#ff0000;stroke-width:0.460283"
         d="M -99.595449,-0.29852061 V 1.653815 h -0.738981 V 1.2610742 h -1.94406 v 7.9974446 h 1.94406 v 7.9974442 h -1.94406 v 7.996928 h 1.94406 v 7.997445 h -1.94406 v 7.996928 h 1.94406 v 7.997444 h -1.94406 v 7.997445 h 1.94406 v 7.997445 h -1.94406 v 7.996928 h 1.94406 v 7.997444 h -1.94406 v 7.997445 h 1.94406 v 7.996928 h -1.94406 v 7.997447 h 1.94406 v 7.99744 h -1.94406 v 7.99693 h 1.94406 v 7.99745 h -1.94406 v 7.99744 h 1.94406 v 7.99693 h -1.94406 v 7.99744 h 1.94406 v 7.99745 h -1.94406 v 7.99693 h 1.94406 v 7.99744 h -1.94406 v 7.99745 h 1.94406 v 7.99692 h -1.94406 v 7.99745 h 1.94406 0.738981 v 1.95182 h 3.95169 v -1.95182 h 3.95222 v 1.95182 h 3.95221 v -1.95182 h 3.951697 v 1.95182 h 3.952214 v -1.95182 h 3.951697 v 1.95182 h 3.952213 v -1.95182 h 3.952214 v 1.95182 h 3.951697 v -1.95182 h 3.952213 v 1.95182 h 3.952214 v -1.95182 h 3.951696 v 1.95182 h 3.952214 v -1.95182 h 3.952214 v 1.95182 h 3.951696 v -1.95182 h 3.952214 v 1.95182 h 3.952213 v -1.95182 h 3.951697 v 1.95182 h 3.952214 v -1.95182 h 3.952213 v 1.95182 h 3.951697 v -1.95182 h 3.952214 v 1.95182 h 3.9522126 v -1.95182 h 3.951697 v 1.95182 h 3.95221295 v -1.95182 -0.58343 H 1.1493026 v -7.99744 h -1.94406805 v -7.99745 H 1.1493026 v -7.99693 h -1.94406805 v -7.99744 H 1.1493026 v -7.99745 H -0.79476545 V 152.626 H 1.1493026 v -7.99745 h -1.94406805 v -7.99744 H 1.1493026 v -7.99693 h -1.94406805 v -7.99744 H 1.1493026 v -7.99745 h -1.94406805 v -7.99693 H 1.1493026 V 96.644916 H -0.79476545 V 88.647471 H 1.1493026 V 80.650543 H -0.79476545 V 72.653099 H 1.1493026 V 64.655654 H -0.79476545 V 56.658726 H 1.1493026 V 48.661281 H -0.79476545 V 40.663837 H 1.1493026 V 32.666909 H -0.79476545 V 24.669464 H 1.1493026 V 16.672019 H -0.79476545 V 8.6750919 H 1.1493026 V 0.67764719 h -1.94406805 v -0.9761678 H -4.7469784 V 1.653815 h -3.951697 V -0.29852061 H -12.650888 V 1.653815 h -3.952214 v -1.95233561 h -3.951697 V 1.653815 h -3.952213 v -1.95233561 h -3.952214 V 1.653815 h -3.951697 v -1.95233561 h -3.952213 V 1.653815 h -3.952214 v -1.95233561 h -3.951696 V 1.653815 h -3.952214 v -1.95233561 h -3.951697 V 1.653815 h -3.952213 v -1.95233561 h -3.952214 V 1.653815 h -3.951697 v -1.95233561 h -3.952213 V 1.653815 h -3.952214 v -1.95233561 h -3.951697 V 1.653815 h -3.952213 v -1.95233561 h -3.952214 V 1.653815 h -3.951697 v -1.95233561 h -3.95221 V 1.653815 h -3.95222 v -1.95233561 z" />
      <text
         xml:space="preserve"
         style="font-style:normal;font-variant:normal;font-weight:normal;font-stretch:normal;font-size:1.76389px;font-family:sans-serif;-inkscape-font-specification:'sans-serif, Normal';font-variant-ligatures:normal;font-variant-caps:normal;font-variant-numeric:normal;font-variant-east-asian:normal;text-align:start;writing-mode:lr-tb;direction:ltr;text-anchor:start;fill:#ffffff;fill-opacity:0;stroke:#000000;stroke-width:0.4;stroke-dasharray:none;stroke-opacity:1"
         x="-50.884686"
         y="4.3666005"
         id="text20"><tspan
           sodipodi:role="line"
           id="tspan20"
           style="font-style:normal;font-variant:normal;font-weight:normal;font-stretch:normal;font-size:1.76389px;font-family:sans-serif;-inkscape-font-specification:'sans-serif, Normal';font-variant-ligatures:normal;font-variant-caps:normal;font-variant-numeric:normal;font-variant-east-asian:normal;stroke-width:0.4"
           x="-50.884686"
           y="4.3666005">1</tspan></text>
      <text
         xml:space="preserve"
         style="font-style:normal;font-variant:normal;font-weight:normal;font-stretch:normal;font-size:1.76389px;font-family:sans-serif;-inkscape-font-specification:'sans-serif, Normal';font-variant-ligatures:normal;font-variant-caps:normal;font-variant-numeric:normal;font-variant-east-asian:normal;text-align:start;writing-mode:lr-tb;direction:ltr;text-anchor:start;fill:#ffffff;fill-opacity:0;stroke:#000000;stroke-width:0.4;stroke-dasharray:none;stroke-opacity:1"
         x="-99.427162"
         y="103.63831"
         id="text20-7-9-9"><tspan
           sodipodi:role="line"
           id="tspan20-6-6-4"
           style="font-style:normal;font-variant:normal;font-weight:normal;font-stretch:normal;font-size:1.76389px;font-family:sans-serif;-inkscape-font-specification:'sans-serif, Normal';font-variant-ligatures:normal;font-variant-caps:normal;font-variant-numeric:normal;font-variant-east-asian:normal;stroke-width:0.4"
           x="-99.427162"
           y="103.63831">4</tspan></text>
      <text
         xml:space="preserve"
         style="font-style:normal;font-variant:normal;font-weight:normal;font-stretch:normal;font-size:1.76389px;font-family:sans-serif;-inkscape-font-specification:'sans-serif, Normal';font-variant-ligatures:normal;font-variant-caps:normal;font-variant-numeric:normal;font-variant-east-asian:normal;text-align:start;writing-mode:lr-tb;direction:ltr;text-anchor:start;fill:#ffffff;fill-opacity:0;stroke:#000000;stroke-width:0.4;stroke-dasharray:none;stroke-opacity:1"
         x="-4.364233"
         y="107.31577"
         id="text20-7-9-9-1"><tspan
           sodipodi:role="line"
           id="tspan20-6-6-4-4"
           style="font-style:normal;font-variant:normal;font-weight:normal;font-stretch:normal;font-size:1.76389px;font-family:sans-serif;-inkscape-font-specification:'sans-serif, Normal';font-variant-ligatures:normal;font-variant-caps:normal;font-variant-numeric:normal;font-variant-east-asian:normal;stroke-width:0.4"
           x="-4.364233"
           y="107.31577">5</tspan></text>
      <text
         xml:space="preserve"
         style="font-style:normal;font-variant:normal;font-weight:normal;font-stretch:normal;font-size:1.76389px;font-family:sans-serif;-inkscape-font-specification:'sans-serif, Normal';font-variant-ligatures:normal;font-variant-caps:normal;font-variant-numeric:normal;font-variant-east-asian:normal;text-align:start;writing-mode:lr-tb;direction:ltr;text-anchor:start;fill:#ffffff;fill-opacity:0;stroke:#000000;stroke-width:0.4;stroke-dasharray:none;stroke-opacity:1"
         x="-54.965973"
         y="199.39076"
         id="text20-7-9-9-1-1-4-4"><tspan
           sodipodi:role="line"
           id="tspan20-6-6-4-4-0-3-3"
           style="font-style:normal;font-variant:normal;font-weight:normal;font-stretch:normal;font-size:1.76389px;font-family:sans-serif;-inkscape-font-specification:'sans-serif, Normal';font-variant-ligatures:normal;font-variant-caps:normal;font-variant-numeric:normal;font-variant-east-asian:normal;stroke-width:0.4"
           x="-54.965973"
           y="199.39076">8</tspan></text>
    </g>
    <g
       id="g22"
       inkscape:label="3"
       transform="translate(139.39288,10.55932)">
      <path
         id="rect1-7"
         style="fill:#ffffff;fill-opacity:0;stroke:#ff0000;stroke-width:0.460283"
         d="M 107.08184,-0.32917887 V 1.6231567 h -4.30052 v 7.9312989 h -1.94406 v 7.9969274 h 1.94406 v 7.997445 h -1.94406 v 7.997445 h 1.94406 v 7.996928 h -1.94406 v 7.997444 h 1.94406 v 7.997445 h -1.94406 v 7.996928 h 1.94406 v 7.997445 h -1.94406 v 7.997444 h 1.94406 v 7.996928 h -1.94406 v 7.997445 h 1.94406 v 7.99744 h -1.94406 v 7.99693 h 1.94406 v 7.99745 h -1.94406 v 7.99744 h 1.94406 v 7.99693 h -1.94406 v 7.99744 h 1.94406 v 7.99745 h -1.94406 v 7.99693 h 1.94406 v 7.99744 h -1.94406 v 7.99745 h 1.94406 v 7.99744 h -1.94406 v 7.99693 h 1.94406 v 7.67137 h 4.01836 v 1.95181 h 3.9517 v -1.95181 h 3.95221 v 1.95181 h 3.95222 v -1.95181 h 3.95169 v 1.95181 h 3.95222 v -1.95181 h 3.95221 v 1.95181 h 3.9517 v -1.95181 h 3.95221 v 1.95181 h 3.9517 v -1.95181 h 3.95221 v 1.95181 h 3.95222 v -1.95181 h 3.95169 v 1.95181 h 3.95222 v -1.95181 h 3.95221 v 1.95181 h 3.9517 v -1.95181 h 3.95221 v 1.95181 h 3.95221 v -1.95181 h 3.9517 v 1.95181 h 3.95221 v -1.95181 h 3.95222 v 1.95181 h 3.95169 v -1.95181 h 3.95222 v 1.95181 h 3.95221 v -1.95181 h 4.62452 v -7.6383 h 1.94407 v -7.99744 h -1.94407 v -7.99693 h 1.94407 v -7.99745 h -1.94407 v -7.99744 h 1.94407 v -7.99693 h -1.94407 v -7.99744 h 1.94407 v -7.99745 h -1.94407 v -7.99693 h 1.94407 v -7.99744 h -1.94407 v -7.99744 h 1.94407 v -7.99693 h -1.94407 v -7.997447 h 1.94407 v -7.997445 h -1.94407 V 81.56298 h 1.94407 v -7.997445 h -1.94407 v -7.997444 h 1.94407 v -7.996928 h -1.94407 v -7.997445 h 1.94407 v -7.997444 h -1.94407 v -7.996928 h 1.94407 v -7.997445 h -1.94407 v -7.997445 h 1.94407 V 9.5875285 h -1.94407 V 1.6231567 h -4.34237 V -0.32917887 H 194.0264 V 1.6231567 h -3.9517 v -1.95233557 h -3.95221 V 1.6231567 h -3.95221 v -1.95233557 h -3.9517 V 1.6231567 h -3.95221 v -1.95233557 h -3.95222 V 1.6231567 h -3.95169 v -1.95233557 h -3.95222 V 1.6231567 h -3.95221 v -1.95233557 h -3.9517 V 1.6231567 h -3.95221 v -1.95233557 h -3.95221 V 1.6231567 h -3.9517 v -1.95233557 h -3.95222 V 1.6231567 h -3.95221 v -1.95233557 h -3.9517 V 1.6231567 h -3.95221 v -1.95233557 h -3.9517 V 1.6231567 h -3.95221 v -1.95233557 h -3.95221 V 1.6231567 h -3.9517 v -1.95233557 z" />
      <text
         xml:space="preserve"
         style="font-style:normal;font-variant:normal;font-weight:normal;font-stretch:normal;font-size:1.76389px;font-family:sans-serif;-inkscape-font-specification:'sans-serif, Normal';font-variant-ligatures:normal;font-variant-caps:normal;font-variant-numeric:normal;font-variant-east-asian:normal;text-align:start;writing-mode:lr-tb;direction:ltr;text-anchor:start;fill:#ffffff;fill-opacity:0;stroke:#000000;stroke-width:0.4;stroke-dasharray:none;stroke-opacity:1"
         x="152.19675"
         y="4.9487205"
         id="text20-7-9"><tspan
           sodipodi:role="line"
           id="tspan20-6-6"
           style="font-style:normal;font-variant:normal;font-weight:normal;font-stretch:normal;font-size:1.76389px;font-family:sans-serif;-inkscape-font-specification:'sans-serif, Normal';font-variant-ligatures:normal;font-variant-caps:normal;font-variant-numeric:normal;font-variant-east-asian:normal;stroke-width:0.4"
           x="152.19675"
           y="4.9487205">3</tspan></text>
      <text
         xml:space="preserve"
         style="font-style:normal;font-variant:normal;font-weight:normal;font-stretch:normal;font-size:1.76389px;font-family:sans-serif;-inkscape-font-specification:'sans-serif, Normal';font-variant-ligatures:normal;font-variant-caps:normal;font-variant-numeric:normal;font-variant-east-asian:normal;text-align:start;writing-mode:lr-tb;direction:ltr;text-anchor:start;fill:#ffffff;fill-opacity:0;stroke:#000000;stroke-width:0.4;stroke-dasharray:none;stroke-opacity:1"
         x="104.59242"
         y="109.72113"
         id="text20-7-9-9-1-1-7"><tspan
           sodipodi:role="line"
           id="tspan20-6-6-4-4-0-6"
           style="font-style:normal;font-variant:normal;font-weight:normal;font-stretch:normal;font-size:1.76389px;font-family:sans-serif;-inkscape-font-specification:'sans-serif, Normal';font-variant-ligatures:normal;font-variant-caps:normal;font-variant-numeric:normal;font-variant-east-asian:normal;stroke-width:0.4"
           x="104.59242"
           y="109.72113">6</tspan></text>
      <text
         xml:space="preserve"
         style="font-style:normal;font-variant:normal;font-weight:normal;font-stretch:normal;font-size:1.76389px;font-family:sans-serif;-inkscape-font-specification:'sans-serif, Normal';font-variant-ligatures:normal;font-variant-caps:normal;font-variant-numeric:normal;font-variant-east-asian:normal;text-align:start;writing-mode:lr-tb;direction:ltr;text-anchor:start;fill:#ffffff;fill-opacity:0;stroke:#000000;stroke-width:0.4;stroke-dasharray:none;stroke-opacity:1"
         x="198.78409"
         y="99.666962"
         id="text20-7-9-9-1-1-4"><tspan
           sodipodi:role="line"
           id="tspan20-6-6-4-4-0-3"
           style="font-style:normal;font-variant:normal;font-weight:normal;font-stretch:normal;font-size:1.76389px;font-family:sans-serif;-inkscape-font-specification:'sans-serif, Normal';font-variant-ligatures:normal;font-variant-caps:normal;font-variant-numeric:normal;font-variant-east-asian:normal;stroke-width:0.4"
           x="198.78409"
           y="99.666962">7</tspan></text>
      <text
         xml:space="preserve"
         style="font-style:normal;font-variant:normal;font-weight:normal;font-stretch:normal;font-size:1.76389px;font-family:sans-serif;-inkscape-font-specification:'sans-serif, Normal';font-variant-ligatures:normal;font-variant-caps:normal;font-variant-numeric:normal;font-variant-east-asian:normal;text-align:start;writing-mode:lr-tb;direction:ltr;text-anchor:start;fill:#ffffff;fill-opacity:0;stroke:#000000;stroke-width:0.4;stroke-dasharray:none;stroke-opacity:1"
         x="144.3006"
         y="197.82912"
         id="text20-7-9-9-1-1-4-4-0-9"><tspan
           sodipodi:role="line"
           id="tspan20-6-6-4-4-0-3-3-8-2"
           style="font-style:normal;font-variant:normal;font-weight:normal;font-stretch:normal;font-size:1.76389px;font-family:sans-serif;-inkscape-font-specification:'sans-serif, Normal';font-variant-ligatures:normal;font-variant-caps:normal;font-variant-numeric:normal;font-variant-east-asian:normal;stroke-width:0.4"
           x="144.3006"
           y="197.82912">10</tspan></text>
    </g>
  </g>
</svg>
